<?xml version="1.0" standalone="no"?>
<!DOCTYPE svg PUBLIC "-//W3C//DTD SVG 20010904//EN"
 "http://www.w3.org/TR/2001/REC-SVG-20010904/DTD/svg10.dtd">
<svg version="1.0" xmlns="http://www.w3.org/2000/svg"
 width="1024.000000pt" height="1024.000000pt" viewBox="0 0 1024.000000 1024.000000"
 preserveAspectRatio="xMidYMid meet">
<metadata>
Created by potrace 1.14, written by Peter Selinger 2001-2017
</metadata>
<g transform="translate(0.000000,1024.000000) scale(0.100000,-0.100000)"
fill="#000000" stroke="none">
<path d="M2910 10221 c-106 -31 -232 -123 -271 -200 -8 -14 -17 -29 -22 -32
-16 -12 -47 -121 -52 -185 -3 -37 -8 -71 -11 -76 -3 -4 -1 -8 5 -8 6 0 6 -11
1 -30 -5 -18 -5 -32 1 -35 5 -4 5 -13 0 -24 -6 -10 -6 -23 -1 -31 5 -8 5 -21
0 -30 -5 -9 -5 -22 0 -30 4 -7 4 -24 0 -36 -6 -14 -5 -26 0 -29 5 -3 5 -18 0
-35 -5 -17 -5 -32 0 -35 5 -3 6 -15 0 -29 -4 -12 -4 -29 0 -36 5 -8 5 -21 0
-30 -5 -9 -5 -22 0 -30 5 -8 5 -21 0 -30 -5 -9 -5 -22 0 -30 4 -7 4 -24 0 -36
-6 -14 -5 -26 0 -29 5 -3 5 -18 0 -35 -5 -17 -5 -32 0 -35 5 -3 6 -15 0 -29
-4 -12 -4 -29 0 -36 5 -8 5 -21 0 -30 -5 -9 -5 -22 0 -30 5 -8 5 -21 0 -30 -5
-9 -5 -22 0 -30 4 -7 4 -24 0 -36 -6 -14 -5 -26 0 -29 5 -3 5 -18 0 -35 -5
-17 -5 -32 0 -35 5 -3 6 -15 0 -29 -4 -12 -4 -29 0 -36 5 -8 5 -21 0 -30 -5
-9 -5 -22 0 -30 5 -8 5 -21 0 -30 -5 -9 -5 -22 0 -30 4 -7 4 -24 0 -36 -6 -14
-5 -26 0 -29 5 -3 5 -18 0 -35 -5 -17 -5 -32 0 -35 5 -3 5 -16 0 -30 -6 -15
-6 -27 0 -30 6 -3 6 -15 0 -29 -5 -13 -6 -27 -3 -30 6 -6 -43 -11 -62 -6 -5 1
-26 2 -45 0 -19 -1 -42 -1 -50 -1 -8 0 -37 0 -65 0 -27 0 -59 0 -70 1 -11 1
-24 1 -30 2 -18 1 -137 -11 -169 -17 -56 -11 -61 -12 -76 -18 -8 -3 -33 -11
-55 -18 -115 -34 -266 -127 -368 -226 -104 -101 -219 -289 -243 -398 -1 -5
-10 -37 -21 -70 -17 -57 -18 -144 -20 -1750 -1 -1607 -1 -1694 17 -1775 28
-132 73 -238 144 -344 50 -74 60 -86 161 -190 92 -95 109 -115 152 -176 57
-84 125 -237 136 -307 3 -17 8 -36 11 -41 5 -9 12 -86 19 -220 2 -24 -1 -46
-6 -49 -4 -2 -4 -10 0 -16 10 -14 9 -178 -1 -195 -4 -7 -4 -12 1 -12 4 0 8
-25 8 -55 0 -30 -4 -55 -8 -55 -5 0 -5 -5 -1 -12 11 -17 11 -108 1 -108 -5 0
-5 -5 -1 -12 11 -17 11 -108 1 -108 -5 0 -5 -5 -1 -12 11 -17 11 -108 1 -108
-5 0 -5 -5 -1 -12 11 -17 11 -108 0 -108 -5 0 -4 -6 1 -12 5 -7 7 -33 6 -58
-2 -25 -3 -51 -3 -57 0 -7 0 -33 0 -58 0 -25 0 -52 0 -60 0 -8 0 -35 0 -60 0
-25 0 -51 0 -57 0 -7 1 -38 3 -68 1 -30 -1 -61 -6 -68 -5 -6 -6 -12 -1 -12 10
0 10 -152 0 -169 -4 -6 -4 -11 1 -11 10 0 10 -161 -1 -178 -4 -6 -4 -12 1 -12
4 0 8 -42 9 -93 0 -50 4 -110 8 -132 25 -146 87 -292 181 -424 56 -79 278
-264 328 -274 7 -1 14 -4 17 -8 9 -9 111 -50 131 -52 10 -1 19 -5 19 -9 0 -4
3 -7 8 -6 4 1 26 -2 49 -6 24 -4 44 -6 46 -4 2 1 11 -3 19 -9 12 -10 513 -12
2394 -10 1308 2 2390 6 2404 9 14 3 40 11 59 17 19 6 38 8 42 5 5 -3 9 0 9 5
0 6 3 10 8 9 27 -7 199 79 283 142 171 128 311 333 354 516 2 10 9 38 15 61 5
22 12 64 14 91 2 28 7 55 10 61 4 5 2 12 -3 15 -6 4 -6 18 -1 36 5 17 5 30 0
30 -5 0 -5 13 0 30 5 17 5 32 0 35 -5 3 -5 16 0 30 6 15 6 27 0 30 -5 3 -6 15
0 29 4 12 4 29 0 36 -5 8 -5 21 0 30 5 9 5 22 0 30 -5 8 -5 21 0 30 5 9 5 22
0 30 -5 8 -5 21 0 30 5 9 5 22 0 30 -5 8 -5 21 0 30 5 9 5 22 0 30 -5 8 -5 21
0 30 5 9 5 22 0 30 -5 8 -5 21 0 30 5 9 5 22 0 30 -5 8 -5 21 0 30 5 9 5 22 0
30 -5 8 -5 21 0 30 5 9 5 22 0 30 -5 8 -5 21 0 30 5 9 5 22 0 29 -4 8 -4 27 0
42 5 16 5 29 0 29 -5 0 -5 13 0 30 5 16 6 30 2 30 -8 0 -7 84 1 97 3 5 2 15
-3 23 -4 7 -4 24 0 36 6 14 5 26 0 29 -5 3 -5 18 0 35 5 17 5 32 0 35 -5 3 -6
15 0 29 4 12 4 29 0 36 -5 8 -5 21 0 30 5 9 5 22 0 30 -5 8 -5 21 0 30 5 9 5
22 0 30 -4 7 -4 24 0 36 6 14 5 26 0 29 -5 3 -5 18 0 35 5 17 5 32 0 35 -5 3
-6 15 0 29 4 12 4 29 0 36 -5 8 -6 18 -3 24 8 12 6 193 -2 206 -3 5 -2 10 4
10 7 0 7 8 1 24 -5 13 -6 26 -3 29 3 3 7 39 8 79 2 40 7 84 10 98 3 14 8 34 9
45 2 11 8 31 14 45 5 14 9 27 9 30 -1 24 68 176 90 198 7 8 11 17 8 22 -3 5
-2 10 2 12 5 1 27 28 49 58 23 30 80 93 126 140 180 182 267 339 306 555 4 22
7 805 7 1740 l0 1700 -23 85 c-52 195 -174 383 -327 505 -27 22 -56 46 -63 53
-7 6 -20 12 -28 12 -8 0 -14 5 -14 10 0 6 -6 10 -13 10 -7 0 -19 6 -26 13 -6
6 -15 12 -19 13 -4 0 -23 7 -42 16 -97 44 -87 41 -204 66 -54 11 -126 18 -182
18 -52 -1 -94 1 -94 4 0 5 -102 4 -125 0 -5 -1 -34 -2 -64 -1 -41 1 -52 4 -48
15 3 8 3 17 -1 20 -3 4 -7 21 -8 39 -1 18 -5 43 -8 57 -4 14 -8 37 -11 52 -10
56 -90 191 -153 259 -35 38 -70 69 -78 69 -8 0 -14 4 -14 10 0 10 -156 89
-188 95 -9 2 -17 4 -17 5 0 2 -22 5 -110 15 -68 8 -63 8 -130 1 -52 -6 -149
-31 -175 -46 -8 -5 -39 -21 -69 -36 -117 -58 -254 -230 -292 -364 -19 -69 -20
-71 -23 -130 l-4 -55 -54 -2 c-160 -7 -188 -8 -188 -3 0 3 -28 4 -62 3 -35 -2
-88 -3 -118 -2 -30 0 -64 0 -75 -1 -11 -1 -27 -1 -35 -1 -106 2 -108 2 -113
22 -3 12 -1 17 5 12 6 -3 8 -1 5 4 -4 6 -9 28 -13 49 -3 22 -9 55 -14 74 -5
19 -10 40 -11 45 -1 6 -20 45 -42 88 -45 90 -149 203 -234 255 -29 17 -53 29
-53 25 0 -3 -8 1 -17 10 -10 8 -22 16 -28 17 -5 0 -28 6 -50 12 -22 6 -47 13
-55 15 -8 3 -58 6 -110 7 -101 4 -189 -10 -255 -39 -22 -10 -43 -19 -46 -19
-23 -4 -145 -96 -188 -142 -46 -50 -121 -164 -113 -172 2 -2 -3 -13 -11 -25
-22 -34 -42 -131 -46 -218 -1 -17 -58 -33 -66 -19 -2 4 -25 4 -50 0 -25 -4
-45 -4 -45 -1 0 3 -27 5 -60 4 -33 -2 -87 -4 -120 -5 -33 -2 -60 -1 -60 2 0 6
-109 4 -115 -2 -2 -2 -32 -1 -67 2 -35 3 -84 3 -110 0 -27 -3 -48 -3 -48 0 0
3 -27 3 -60 0 -33 -3 -60 -3 -60 0 0 4 -22 4 -49 0 -41 -5 -50 -3 -50 9 -1 16
-1 36 -1 66 0 8 0 22 0 30 0 8 0 22 0 30 0 8 0 22 0 30 0 8 0 22 0 30 0 8 0
22 0 30 0 8 0 21 0 28 0 6 -1 28 -2 47 -1 20 1 42 4 51 3 9 2 22 -2 29 -5 7
-4 24 0 36 6 14 5 26 0 29 -5 3 -5 18 0 35 5 17 5 32 0 35 -5 3 -6 15 0 29 4
12 4 29 0 36 -5 8 -5 21 0 30 5 9 5 22 0 30 -5 8 -5 21 0 30 5 9 5 22 0 30 -4
7 -4 24 0 36 6 14 5 26 0 29 -5 3 -5 18 0 35 5 17 5 32 0 35 -5 3 -6 15 0 29
4 12 4 29 0 36 -5 8 -6 18 -3 23 8 13 9 77 1 90 -3 6 -3 18 2 27 5 9 5 22 0
30 -5 8 -5 21 0 30 5 9 5 22 0 30 -5 8 -5 21 0 30 5 9 5 22 0 30 -5 8 -5 21 0
30 5 9 5 22 0 29 -4 8 -4 27 0 42 5 16 5 29 0 29 -5 0 -5 13 0 30 5 17 5 30 0
30 -5 0 -5 13 0 30 5 17 5 30 2 30 -4 0 -7 18 -6 41 2 86 -64 228 -140 301
-35 34 -112 89 -129 92 -7 2 -25 8 -41 15 -80 32 -207 38 -296 12z m653 -3184
c9 8 127 10 127 1 0 -4 14 -3 30 2 18 5 30 5 30 0 0 -6 10 -6 25 0 15 6 26 6
30 -1 4 -6 13 -6 23 0 9 5 26 5 39 0 13 -5 23 -5 23 -1 0 4 38 7 85 7 47 0 85
-3 85 -7 0 -4 14 -3 30 2 18 5 30 5 30 0 0 -6 10 -6 25 0 15 6 27 6 30 0 3 -6
15 -6 30 0 15 6 27 6 30 0 4 -6 13 -7 24 -1 10 6 23 6 31 1 8 -5 18 -6 23 -3
11 7 163 6 175 -1 4 -2 14 -1 22 4 8 5 21 5 31 -1 11 -6 20 -5 24 1 4 6 15 6
30 0 14 -5 25 -6 25 -2 0 8 113 8 126 -1 6 -3 16 -2 24 3 8 5 21 5 30 0 9 -5
22 -5 30 0 8 5 21 5 31 -1 11 -6 20 -5 24 1 4 6 15 6 30 0 14 -5 25 -6 25 -2
0 8 118 8 126 -1 4 -4 14 -2 23 2 24 13 24 13 54 2 15 -6 27 -7 27 -1 0 5 12
5 30 0 17 -5 30 -5 30 -2 0 9 75 6 89 -3 5 -3 12 -1 16 4 4 7 15 7 30 1 14 -5
25 -6 25 -2 0 4 25 7 55 7 30 0 55 -3 55 -7 0 -4 11 -3 25 2 15 6 27 6 30 0 3
-6 15 -6 30 0 15 6 27 6 30 -1 4 -6 13 -6 23 0 9 5 23 6 32 1 9 -5 22 -5 30 0
8 5 21 5 31 -1 11 -6 20 -5 24 1 4 6 15 6 30 0 15 -6 25 -6 25 0 0 5 12 5 30
0 17 -5 30 -6 30 -2 0 4 38 7 85 7 47 0 85 -2 85 -5 0 -3 16 -5 35 -5 19 0 35
2 35 5 0 3 38 5 85 5 47 0 85 -3 85 -7 0 -4 14 -3 30 2 17 5 30 5 30 0 0 -4
15 -5 33 0 18 4 43 3 55 -1 12 -5 22 -4 22 1 0 5 13 5 30 0 17 -5 30 -5 30 -2
0 9 75 6 89 -3 5 -3 12 -1 16 4 4 7 15 7 30 1 17 -6 25 -6 25 1 0 6 4 8 9 5 5
-3 33 -8 62 -10 88 -7 143 -31 201 -89 69 -68 93 -127 91 -222 -1 -91 -2 -95
-28 -150 -45 -92 -153 -164 -260 -172 -74 -5 -73 -5 -110 -4 -16 1 -54 1 -83
1 -29 0 -58 2 -63 5 -5 4 -9 2 -9 -3 0 -5 -19 -6 -43 -2 -24 3 -52 3 -63 0
-10 -4 -29 -4 -40 1 -12 4 -24 5 -27 2 -3 -3 -34 -4 -69 -4 -96 2 -141 0 -150
-5 -4 -3 -8 0 -8 6 0 6 -4 9 -8 6 -10 -6 -70 -8 -140 -4 -28 2 -52 0 -52 -3 0
-4 -18 -3 -40 1 -22 4 -40 5 -40 1 0 -3 -24 -5 -52 -3 -70 4 -130 2 -140 -4
-4 -3 -8 -1 -8 4 0 5 -20 6 -45 2 -24 -4 -49 -4 -55 0 -6 4 -29 4 -51 0 -22
-4 -39 -3 -39 2 0 5 -4 7 -9 3 -8 -5 -138 -7 -191 -4 -27 2 -236 -1 -333 -4
-26 -1 -47 1 -47 4 0 4 -18 3 -39 -1 -22 -4 -45 -4 -51 0 -6 4 -31 4 -55 0
-25 -4 -45 -3 -45 2 0 5 -4 7 -8 4 -10 -6 -70 -8 -140 -4 -28 2 -52 0 -52 -3
0 -4 -18 -3 -40 1 -22 4 -40 5 -40 1 0 -3 -24 -5 -52 -3 -70 4 -130 2 -140 -4
-4 -3 -8 0 -8 6 0 6 -4 9 -8 6 -9 -5 -54 -7 -150 -5 -35 0 -66 -1 -69 -4 -3
-3 -15 -2 -27 2 -11 5 -30 5 -40 1 -11 -3 -39 -3 -63 0 -23 4 -43 4 -43 0 0
-4 -20 -4 -43 0 -24 3 -52 3 -62 0 -11 -4 -36 -3 -57 0 -22 4 -38 3 -38 -2 0
-5 -3 -7 -8 -4 -4 2 -34 7 -67 11 -33 3 -64 10 -70 16 -5 5 -17 9 -26 9 -9 0
-22 7 -29 15 -7 9 -15 13 -18 10 -9 -9 -86 81 -110 129 -17 33 -25 68 -27 123
-2 43 -1 82 3 88 4 5 8 18 9 28 6 40 61 111 127 165 22 18 127 54 142 48 6 -2
17 0 24 4 8 5 21 5 31 0 9 -5 19 -7 22 -3z m34 -1276 c13 5 25 4 28 -1 3 -5
18 -5 35 0 17 5 30 6 30 2 0 -4 16 -7 35 -7 19 0 35 3 35 7 0 4 12 3 28 -1 15
-5 36 -5 47 -1 11 4 32 4 46 0 15 -4 32 -4 39 0 7 5 23 5 34 0 11 -4 33 -4 48
1 16 4 28 4 28 0 0 -5 15 -5 33 -2 17 4 47 4 65 0 17 -4 34 -3 37 2 3 4 16 4
28 0 12 -5 34 -5 49 0 16 4 28 4 28 0 0 -5 15 -5 33 -2 17 4 47 4 65 0 17 -4
34 -3 37 2 3 4 16 4 28 0 12 -5 34 -5 49 0 15 4 30 4 33 -1 3 -5 18 -5 33 -1
15 5 36 5 47 1 11 -4 30 -4 41 1 12 4 25 5 28 2 8 -8 76 -9 76 -1 0 4 13 3 30
-2 17 -5 32 -5 35 0 3 5 16 5 28 1 12 -5 32 -5 44 0 13 5 25 4 28 -1 3 -5 18
-5 35 0 17 5 30 6 30 2 0 -4 16 -7 35 -7 19 0 35 4 35 8 0 5 5 5 11 2 6 -4 34
-7 62 -6 55 1 79 1 100 0 6 0 26 0 42 0 17 1 37 1 45 0 8 0 24 0 35 1 11 0 27
0 35 0 8 -1 29 -1 45 -1 17 1 37 1 45 0 8 0 24 0 35 1 11 0 27 0 35 0 8 -1 29
-1 45 -1 17 1 37 1 45 0 8 0 26 0 40 1 14 0 36 1 50 1 14 0 34 2 45 3 11 1 35
-1 53 -5 17 -4 34 -3 37 1 3 5 18 5 33 1 15 -5 37 -5 48 -1 11 5 27 4 34 0 7
-5 24 -4 36 0 13 5 26 5 29 1 3 -5 20 -6 37 -2 18 4 47 4 63 1 17 -4 37 -3 46
1 8 4 21 4 29 -1 7 -4 24 -4 36 0 13 5 26 5 29 1 3 -5 20 -6 37 -2 18 4 47 4
63 1 17 -4 40 -3 52 1 12 5 25 4 27 0 3 -5 20 -5 38 -2 18 4 48 4 66 0 17 -4
34 -3 37 2 3 4 16 4 28 0 12 -5 34 -5 49 0 16 4 28 5 28 1 0 -4 25 -8 54 -8
30 -1 63 -5 73 -9 10 -4 23 -9 30 -11 20 -4 76 -45 107 -78 52 -57 78 -122 81
-205 2 -42 0 -80 -3 -86 -4 -5 -8 -18 -9 -27 -5 -29 -61 -114 -89 -134 -14
-10 -32 -25 -40 -32 -17 -17 -125 -54 -140 -48 -6 2 -17 0 -24 -4 -8 -5 -22
-4 -31 1 -11 5 -20 5 -24 0 -3 -6 -17 -6 -35 -1 -17 5 -32 5 -35 0 -3 -5 -16
-5 -30 0 -14 5 -25 6 -25 2 0 -4 -25 -7 -55 -7 -30 0 -55 3 -55 7 0 4 -13 3
-28 -2 -16 -4 -36 -4 -45 1 -9 6 -18 5 -22 0 -4 -7 -15 -7 -30 -1 -14 5 -25 6
-25 2 0 -4 -25 -7 -55 -7 -30 0 -55 3 -55 7 0 4 -6 5 -12 3 -23 -9 -108 -11
-108 -3 0 4 -11 3 -25 -2 -15 -6 -26 -6 -30 1 -4 6 -13 6 -23 0 -9 -5 -23 -6
-32 -1 -9 5 -22 5 -30 0 -8 -5 -21 -5 -31 1 -11 6 -20 5 -24 -1 -4 -6 -15 -6
-30 0 -14 5 -25 6 -25 2 0 -4 -25 -7 -55 -7 -30 0 -55 3 -55 7 0 4 -6 5 -12 3
-23 -9 -108 -11 -108 -3 0 4 -11 3 -25 -2 -15 -6 -26 -6 -30 0 -4 6 -13 7 -24
1 -9 -5 -23 -6 -31 -1 -7 4 -18 6 -24 4 -21 -8 -106 -10 -106 -2 0 4 -11 3
-25 -2 -15 -6 -26 -6 -30 0 -4 6 -13 7 -24 1 -9 -5 -23 -6 -31 -1 -7 4 -24 4
-36 0 -13 -5 -25 -6 -28 -2 -5 8 -74 7 -83 -2 -3 -3 -14 -1 -24 4 -11 7 -20 7
-24 0 -4 -6 -15 -6 -30 0 -14 5 -25 6 -25 2 0 -8 -113 -8 -126 1 -6 3 -16 2
-24 -3 -8 -5 -21 -5 -30 0 -9 5 -22 5 -30 0 -8 -5 -21 -5 -31 1 -11 6 -20 5
-24 -1 -4 -6 -15 -6 -30 0 -14 5 -25 6 -25 2 0 -8 -113 -8 -126 1 -6 3 -16 2
-24 -3 -8 -5 -21 -5 -30 0 -9 5 -22 5 -30 0 -8 -5 -21 -5 -31 1 -11 6 -20 5
-24 -1 -4 -6 -15 -6 -30 0 -14 5 -25 6 -25 2 0 -8 -113 -8 -126 1 -6 3 -16 2
-24 -3 -8 -5 -21 -5 -30 0 -9 5 -22 5 -30 0 -8 -5 -21 -5 -31 1 -11 6 -20 5
-24 -1 -4 -6 -15 -6 -30 0 -14 5 -25 6 -25 2 0 -8 -113 -8 -126 1 -6 3 -16 2
-24 -3 -8 -5 -21 -5 -30 0 -9 5 -22 5 -30 0 -8 -5 -21 -5 -31 1 -11 6 -20 5
-24 -1 -4 -6 -15 -6 -30 0 -14 5 -25 6 -25 2 0 -8 -118 -8 -126 1 -4 4 -14 2
-24 -3 -10 -5 -20 -7 -23 -4 -3 3 -26 7 -52 10 -112 9 -214 95 -260 219 -5 11
-9 48 -11 83 -3 64 20 153 48 188 48 60 128 120 170 128 13 3 23 5 23 6 0 2
17 4 38 5 21 1 40 5 43 8 3 3 16 2 27 -2 12 -5 32 -5 44 0z m-32 -1281 c11 4
30 4 41 -1 12 -4 25 -5 28 -1 8 7 91 6 104 -1 4 -3 14 -2 21 3 8 4 25 4 40 0
14 -4 35 -4 46 0 11 4 32 4 48 -1 15 -4 27 -5 27 -1 0 4 16 7 35 7 19 0 35 -3
35 -7 0 -4 13 -3 30 2 17 5 32 5 35 0 3 -5 16 -5 28 -1 12 5 32 5 44 0 13 -5
25 -4 28 1 3 5 18 5 35 0 17 -5 30 -6 30 -2 0 8 68 7 76 -1 3 -3 16 -2 28 2
11 5 30 5 41 1 11 -4 32 -4 47 1 15 4 30 4 33 -1 3 -5 18 -5 33 -1 15 5 36 5
47 1 11 -4 24 -5 29 -2 13 7 136 8 136 0 0 -4 12 -3 28 1 15 5 36 5 47 1 11
-4 24 -5 29 -2 13 7 136 8 136 0 0 -4 12 -3 28 1 15 5 37 5 48 1 11 -5 27 -5
34 0 7 4 24 5 39 1 14 -4 35 -6 46 -5 25 3 65 5 85 4 8 -1 24 -1 35 0 27 1 87
1 103 1 6 -1 18 -1 25 -2 6 0 21 0 32 1 27 1 87 1 103 1 6 -1 18 -1 25 -2 6 0
21 0 32 1 27 1 87 1 103 1 25 -2 43 -1 101 0 33 1 64 -1 69 -5 6 -3 13 -2 16
3 4 6 18 6 36 1 17 -5 30 -6 30 -2 0 8 128 7 136 -1 3 -3 16 -2 28 3 13 4 29
4 36 0 8 -5 18 -6 23 -3 12 7 146 8 153 0 3 -3 16 -2 28 3 13 4 29 4 36 0 8
-5 18 -6 23 -3 12 7 146 8 153 0 3 -3 16 -2 28 3 13 4 28 5 35 0 7 -4 28 -4
47 0 18 4 35 6 37 3 3 -2 32 -6 66 -8 34 -2 67 -8 74 -12 7 -4 17 -8 24 -9 20
-3 76 -45 109 -81 54 -59 76 -116 79 -201 2 -43 0 -81 -3 -87 -4 -5 -8 -18 -9
-28 -6 -36 -69 -119 -127 -165 -23 -19 -128 -53 -143 -48 -7 3 -15 1 -17 -3
-3 -5 -24 -5 -46 -1 -22 4 -42 4 -45 0 -2 -4 -21 -4 -42 -1 -21 4 -57 4 -80 0
-24 -3 -43 -3 -43 1 0 4 -17 4 -37 1 -21 -4 -57 -4 -80 0 -24 3 -43 3 -43 -1
0 -4 -20 -4 -43 0 -24 3 -52 3 -62 0 -11 -4 -36 -3 -57 0 -21 4 -38 4 -38 0 0
-4 -18 -4 -40 0 -22 4 -40 4 -40 0 0 -4 -17 -4 -38 0 -21 3 -46 4 -57 0 -10
-3 -38 -3 -62 0 -23 4 -43 4 -43 0 0 -4 -20 -4 -43 0 -24 3 -52 3 -62 0 -11
-4 -36 -3 -57 0 -21 4 -38 4 -38 0 0 -4 -18 -4 -40 0 -22 4 -40 4 -40 0 0 -4
-17 -4 -38 0 -21 3 -46 4 -57 0 -10 -3 -38 -3 -62 0 -23 4 -43 4 -43 0 0 -4
-19 -4 -42 0 -24 3 -56 3 -73 0 -16 -3 -41 -3 -55 0 -13 3 -45 3 -70 0 -25 -3
-57 -3 -70 0 -14 3 -38 3 -55 0 -16 -3 -49 -3 -72 0 -24 4 -43 4 -43 0 0 -4
-20 -4 -43 0 -24 3 -52 3 -62 0 -11 -4 -36 -3 -57 0 -21 4 -38 4 -38 0 0 -4
-18 -4 -40 0 -22 4 -40 4 -40 0 0 -4 -17 -4 -38 0 -21 3 -46 4 -57 0 -10 -3
-38 -3 -62 0 -23 4 -43 4 -43 0 0 -4 -20 -4 -43 0 -24 3 -52 3 -62 0 -11 -4
-36 -3 -57 0 -21 4 -38 4 -38 0 0 -4 -18 -4 -40 0 -22 4 -40 4 -40 0 0 -4 -17
-4 -38 0 -21 3 -46 4 -57 0 -10 -3 -38 -3 -62 0 -23 4 -43 4 -43 0 0 -4 -19
-4 -42 -1 -24 4 -60 4 -80 0 -21 -3 -38 -2 -38 3 0 5 -4 6 -10 3 -5 -3 -36 -6
-67 -5 -59 1 -84 1 -105 -1 -27 -2 -134 9 -153 16 -88 32 -155 90 -195 170
-20 42 -24 63 -23 130 1 91 2 96 28 150 41 84 141 156 236 170 24 4 46 9 48
11 2 2 9 0 15 -5 6 -5 20 -5 31 -1z"/>
</g>
</svg>
