<?xml version="1.0" encoding="utf-8"?>
<!-- Generator: Adobe Illustrator 27.2.0, SVG Export Plug-In . SVG Version: 6.00 Build 0)  -->
<svg version="1.1" id="Layer_1" xmlns="http://www.w3.org/2000/svg" xmlns:xlink="http://www.w3.org/1999/xlink" x="0px" y="0px"
	 viewBox="0 0 25 30" style="enable-background:new 0 0 25 30;" xml:space="preserve">
<style type="text/css">
	.st0{fill:#EA580C;}
	.st1{fill:#FFFFFF;}
</style>
<path class="st0" d="M23.8,11.3c0,5.1-6.9,14.3-9.9,18c-0.7,0.9-2.1,0.9-2.8,0c-3-3.8-9.9-12.9-9.9-18C1.2,5.1,6.3,0,12.5,0
	S23.8,5.1,23.8,11.3z"/>
<path class="st1" d="M6.4,5.5C6,5.3,5.5,5.6,5.3,6C5,6.9,4.8,7.9,4.8,8.9s0.2,2,0.6,2.9c0.2,0.4,0.7,0.7,1.1,0.5s0.7-0.7,0.5-1.1
	c-0.3-0.7-0.4-1.5-0.4-2.3c0-0.8,0.2-1.6,0.4-2.3C7.1,6.2,6.9,5.7,6.4,5.5z M18.6,5.5c-0.4,0.2-0.7,0.7-0.5,1.1
	c0.3,0.7,0.4,1.5,0.4,2.3c0,0.8-0.2,1.6-0.4,2.3c-0.2,0.4,0,0.9,0.5,1.1c0.4,0.2,0.9,0,1.1-0.5c0.4-0.9,0.6-1.9,0.6-2.9
	S20,6.9,19.7,6C19.5,5.6,19,5.3,18.6,5.5L18.6,5.5z M13.9,9.9c0.2-0.3,0.3-0.6,0.3-1c0-0.9-0.8-1.7-1.7-1.7c-0.9,0-1.7,0.8-1.7,1.7
	c0,0.4,0.1,0.7,0.3,1L7.4,18c-0.2,0.4,0,0.9,0.4,1.1c0.4,0.2,0.9,0,1.1-0.4l0.6-1.2h5.9l0.6,1.2c0.2,0.4,0.7,0.6,1.1,0.4
	c0.4-0.2,0.6-0.7,0.4-1.1L13.9,9.9z M14.7,15.8h-4.4l0.4-0.9h3.6L14.7,15.8z M12.5,11l1,2.2h-2L12.5,11z M9.2,7.4
	c0.1-0.3,0-0.7-0.3-0.8C8.5,6.4,8.1,6.6,8,6.9c-0.3,0.6-0.4,1.3-0.4,2c0,0.7,0.1,1.4,0.4,2c0.1,0.3,0.5,0.5,0.8,0.3
	c0.3-0.1,0.5-0.5,0.3-0.8C9,9.9,8.8,9.4,8.8,8.9C8.8,8.4,9,7.9,9.2,7.4z M17,6.9c-0.1-0.3-0.5-0.5-0.8-0.3s-0.5,0.5-0.3,0.8
	c0.2,0.4,0.3,0.9,0.3,1.5c0,0.5-0.1,1-0.3,1.5c-0.1,0.3,0,0.7,0.3,0.8s0.7,0,0.8-0.3c0.3-0.6,0.4-1.3,0.4-2
	C17.4,8.2,17.3,7.5,17,6.9z"/>
</svg>
