<?xml version="1.0" encoding="utf-8"?>
<!-- Generator: Adobe Illustrator 27.7.0, SVG Export Plug-In . SVG Version: 6.00 Build 0)  -->
<svg version="1.1" id="Layer_1" xmlns="http://www.w3.org/2000/svg" xmlns:xlink="http://www.w3.org/1999/xlink" x="0px" y="0px"
	 viewBox="0 0 512 512" style="enable-background:new 0 0 512 512;" xml:space="preserve">
<style type="text/css">
	.st0{fill:#EA4335;}
	.st1{fill:#B21511;}
</style>
<g>
	<path class="st0" d="M256,502c-12.1,0-22-9.9-22-22v-19l-8.5-1.3c-43.8-6.5-83.6-26.6-115.1-58.1c-31.5-31.5-51.6-71.3-58.1-115.1
		L51,278H32c-12.1,0-22-9.9-22-22s9.9-22,22-22h19l1.3-8.5c6.5-43.8,26.6-83.6,58.1-115.1c31.5-31.5,71.3-51.6,115.1-58.1L234,51V32
		c0-12.1,9.9-22,22-22s22,9.9,22,22v19l8.5,1.3c43.8,6.5,83.6,26.6,115.1,58.1c31.5,31.5,51.6,71.3,58.1,115.1l1.3,8.5h19
		c12.1,0,22,9.9,22,22s-9.9,22-22,22h-19l-1.3,8.5c-6.5,43.8-26.6,83.6-58.1,115.1c-31.5,31.5-71.3,51.6-115.1,58.1L278,461v19
		C278,492.1,268.1,502,256,502z M97.6,290.1c13.3,62.1,62.1,110.9,124.3,124.3L234,417v-33c0-12.1,9.9-22,22-22s22,9.9,22,22v33
		l12.1-2.6c62.1-13.3,110.9-62.1,124.3-124.3L417,278h-33c-12.1,0-22-9.9-22-22s9.9-22,22-22h33l-2.6-12.1
		C401,159.7,352.3,111,290.1,97.6L278,95v33c0,12.1-9.9,22-22,22s-22-9.9-22-22V95l-12.1,2.6C159.7,111,111,159.7,97.6,221.9L95,234
		h33c12.1,0,22,9.9,22,22s-9.9,22-22,22H95L97.6,290.1z M256,278c-12.1,0-22-9.9-22-22s9.9-22,22-22s22,9.9,22,22S268.1,278,256,278
		z"/>
	<path class="st1" d="M256,20c6.6,0,12,5.4,12,12v10.4v17.3l17.1,2.5c20.9,3.1,41,9.5,59.8,19.1c18.4,9.4,35.1,21.5,49.7,36.2
		c14.6,14.6,26.8,31.4,36.1,49.7c9.6,18.8,16,38.9,19.1,59.8l2.5,17.1h17.2H480c6.6,0,12,5.4,12,12c0,6.6-5.4,12-12,12h-10.4h-17.3
		l-2.5,17.1c-3.1,20.9-9.5,41-19.1,59.8c-9.4,18.4-21.5,35.1-36.2,49.7c-14.6,14.6-31.4,26.8-49.7,36.1c-18.8,9.6-38.9,16-59.8,19.1
		l-17.1,2.5v17.2V480c0,6.6-5.4,12-12,12c-6.6,0-12-5.4-12-12v-10.4v-17.3l-17.1-2.5c-20.9-3.1-41-9.5-59.8-19.1
		c-18.4-9.4-35.1-21.5-49.7-36.1c-14.6-14.6-26.8-31.3-36.1-49.7c-9.6-18.8-16-38.9-19.1-59.8L59.7,268H42.4H32c-6.6,0-12-5.4-12-12
		c0-6.6,5.4-12,12-12h10.4h17.3l2.5-17.1c3.1-20.9,9.5-41,19.1-59.8c9.4-18.4,21.5-35.1,36.1-49.7c14.6-14.6,31.3-26.8,49.7-36.1
		c18.8-9.6,38.9-16,59.8-19.1l17.1-2.5V42.4V32C244,25.4,249.4,20,256,20 M256,140c-6.6,0-12-5.4-12-12v-20.6V82.7l-24.2,5.2
		c-66,14.2-117.8,66-132,132L82.7,244h24.7H128c6.6,0,12,5.4,12,12c0,6.6-5.4,12-12,12h-20.6H82.7l5.2,24.2
		c14.1,66,65.9,117.8,132,132l24.2,5.2v-24.8V384c0-6.6,5.4-12,12-12c6.6,0,12,5.4,12,12v20.6v24.7l24.2-5.2
		c66-14.1,117.8-65.9,132-132l5.2-24.2h-24.8H384c-6.6,0-12-5.4-12-12c0-6.6,5.4-12,12-12h20.6h24.7l-5.2-24.2
		c-14.2-66-66-117.8-132-132L268,82.7v24.7V128C268,134.6,262.6,140,256,140 M256,244c6.6,0,12,5.4,12,12c0,6.6-5.4,12-12,12
		c-6.6,0-12-5.4-12-12C244,249.4,249.4,244,256,244 M256,0c-17.7,0-32,14.3-32,32v10.4C130.3,56.3,56.3,130.3,42.4,224H32
		c-17.7,0-32,14.3-32,32s14.3,32,32,32h10.4c13.9,93.7,87.9,167.7,181.6,181.6V480c0,17.7,14.3,32,32,32s32-14.3,32-32v-10.4
		c93.6-13.9,167.7-87.9,181.6-181.6H480c17.7,0,32-14.3,32-32s-14.3-32-32-32h-10.4C455.7,130.4,381.7,56.3,288,42.4V32
		C288,14.3,273.7,0,256,0L256,0z M256,160c17.7,0,32-14.3,32-32v-20.6c58.3,12.5,104.1,58.3,116.6,116.6H384c-17.7,0-32,14.3-32,32
		s14.3,32,32,32h20.6c-12.5,58.2-58.3,104.1-116.6,116.6V384c0-17.7-14.3-32-32-32s-32,14.3-32,32v20.6
		c-58.2-12.5-104.1-58.3-116.6-116.6H128c17.7,0,32-14.3,32-32s-14.3-32-32-32h-20.6c12.5-58.3,58.3-104.1,116.6-116.6V128
		C224,145.7,238.3,160,256,160L256,160z M256,224c-17.7,0-32,14.3-32,32c0,17.7,14.3,32,32,32s32-14.3,32-32
		C288,238.3,273.7,224,256,224L256,224z"/>
</g>
</svg>
