<?xml version="1.0" encoding="utf-8"?>
<svg version="1.1" id="Layer_1" xmlns="http://www.w3.org/2000/svg" xmlns:xlink="http://www.w3.org/1999/xlink" x="0px" y="0px"
	 viewBox="0 0 600 1000" style="enable-background:new 0 0 600 1000;" xml:space="preserve">
<style type="text/css">
	.st0{fill:#eabd35;}
	.st1{fill:#2812af;}
</style>
<g>
	<path class="st0" d="M299,901.1c-33.9-131.5-104.8-246.3-168.9-349.9C69.7,453.4,17.5,368.9,17.5,300c0-75.5,29.4-146.4,82.7-199.8
		C153.6,46.9,224.5,17.5,300,17.5c75.5,0,146.4,29.4,199.8,82.7c53.4,53.4,82.7,124.3,82.7,199.8c0,68.8-52.6,153.2-113.4,251
		C404.6,654.7,333.1,769.5,299,901.1z"/>
	<path class="st1" d="M300,35c35.8,0,70.5,7,103.1,20.8c31.6,13.3,59.9,32.5,84.2,56.8c24.3,24.3,43.5,52.7,56.8,84.2
		C558,229.5,565,264.2,565,300c0,28.2-9.9,61.6-31.1,104.9c-20.4,41.7-49.2,88-79.7,136.9c-53.5,86-116.1,186.6-155.2,299.7
		C260.3,728.5,198.2,628,145,542c-30.3-49-58.8-95.2-79.1-137C44.8,361.7,35,328.3,35,300c0-35.8,7-70.5,20.8-103.1
		c13.3-31.6,32.5-59.9,56.8-84.2s52.7-43.5,84.2-56.8C229.5,42,264.2,35,300,35 M300,0C134.3,0,0,134.3,0,300s269,394.9,299,700
		c30-305.1,301-534.3,301-700S465.7,0,300,0L300,0z"/>
</g>
<circle class="st1" cx="299" cy="300" r="129.5"/>
</svg>
